<svg viewBox="0 0 64 64" xmlns="http://www.w3.org/2000/svg">
<rect fill="#fff" height="34" rx="2" width="34" x="25.5" y="27">
</rect>
<rect fill="#00ce3f" height="34" rx="2" width="34" x="4.5" y="20" style="fill: rgb(165, 154, 215);">
</rect>
<path d="m36.57451 19.95456h-3.07446v34h3.07446a2 2 0 0 0 2-2v-30a2 2 0 0 0 -2-2z" fill="#333">
</path>
<path d="m18.5 9a2 2 0 0 0 -2 2v30a2 2 0 0 0 2 2h26.92554v-34z" fill="#fff">
</path>
<path d="m48.5 9h-3.07446v34h3.07446a2 2 0 0 0 2-2v-30a2 2 0 0 0 -2-2z" fill="#00ce3f" style="fill: rgb(165, 154, 215);">
</path>
<path d="m57.5 26.95456h-3.07446v34h3.07446a2 2 0 0 0 2-2v-30a2 2 0 0 0 -2-2z" fill="#00ce3f" style="fill: rgb(165, 154, 215);">
</path>
<path d="m46 7a4.00015 4.00015 0 0 1 -8-.00009 4.00016 4.00016 0 0 1 8 .00009z" fill="#333">
</path>
<path d="m57.5 25.95456h-6v-15a3.00328 3.00328 0 0 0 -3-3h-1.60107a5 5 0 1 0 -9.79786 0h-18.60107a3.00328 3.00328 0 0 0 -3 3v8h-9a3.00328 3.00328 0 0 0 -3 3v30a3.00328 3.00328 0 0 0 3 3h18v4a3.00328 3.00328 0 0 0 3 3h30a3.00328 3.00328 0 0 0 3-3v-30a3.00328 3.00328 0 0 0 -3-3zm-15.5-22a3.00019 3.00019 0 0 1 -.00009 6 3.00019 3.00019 0 0 1 .00009-6zm-24.5 7a1.00067 1.00067 0 0 1 1-1h19.08594l-3.793 3.793a.99989.99989 0 1 0 1.41406 1.41403l4.04-4.04a5.00952 5.00952 0 0 0 6.72736-1.167h2.52564a1.00067 1.00067 0 0 1 1 1v30a1.00067 1.00067 0 0 1 -1 1h-30a1.00067 1.00067 0 0 1 -1-1zm-12 41v-30a1.00067 1.00067 0 0 1 1-1h9v20a3.00328 3.00328 0 0 0 3 3h19v8a1.00067 1.00067 0 0 1 -1 1h-30a1.00067 1.00067 0 0 1 -1-1zm53 7a1.00067 1.00067 0 0 1 -1 1h-30a1.00067 1.00067 0 0 1 -1-1v-4h10a3.00328 3.00328 0 0 0 3-3v-8h9a3.00328 3.00328 0 0 0 3-3v-13h6a1.00067 1.00067 0 0 1 1 1z" fill="#333">
</path>
<g fill="#00ce3f">
<path d="m24.5 20.95456h18a1.00019 1.00019 0 0 0 -.00007-2h-17.99993a1.0002 1.0002 0 0 0 0 2z" fill="#00ce3f" style="fill: rgb(165, 154, 215);">
</path>
<path d="m24.5 24.95456h18a1.00019 1.00019 0 0 0 -.00007-2h-17.99993a1.0002 1.0002 0 0 0 0 2z" fill="#00ce3f" style="fill: rgb(165, 154, 215);">
</path>
<path d="m24.5 28.95456h18a1.00019 1.00019 0 0 0 -.00007-2h-17.99993a1.0002 1.0002 0 0 0 0 2z" fill="#00ce3f" style="fill: rgb(165, 154, 215);">
</path>
<path d="m42.5 30.95456h-10a1.00019 1.00019 0 0 0 .00006 2h9.99994a1.00019 1.00019 0 0 0 0-2z" fill="#00ce3f" style="fill: rgb(165, 154, 215);">
</path>
</g>
</svg>